<svg width="141" height="67" viewBox="0 0 141 67" fill="none" xmlns="http://www.w3.org/2000/svg">
<path d="M54.977 15.1143L50.2568 24.3337L28.6457 66.6525L7.0347 24.2424L2.31445 15.1143H12.6409L17.3612 24.3337L28.6457 46.4608L39.9303 24.3337L44.6506 15.1143H54.977Z" fill="white"/>
<path d="M98.2731 40.8082C98.2731 53.0116 88.3457 62.9398 76.1414 62.9398C63.9371 62.9398 54.0098 53.0116 54.0098 40.8082C54.0098 28.6047 63.938 18.6765 76.1414 18.6765C88.3448 18.6765 98.2731 28.6038 98.2731 40.8082ZM90.3688 40.8082C90.3688 32.967 83.9826 26.5807 76.1414 26.5807C68.3002 26.5807 61.914 32.967 61.914 40.8082C61.914 48.6494 68.3029 55.0356 76.1414 55.0356C83.9799 55.0356 90.3688 48.6485 90.3688 40.8082Z" fill="white"/>
<path d="M95.8652 63.0026H95.9913L95.8652 63.1286V63.0026ZM140.255 18.7393L123.118 40.9339L140.192 63.0026H130.2L118.123 47.3841L106.046 63.0026H96.0543L113.065 40.9339L95.9283 18.7393H105.92L118.06 34.4847L130.2 18.7393H140.255ZM140.129 63.1286L140.065 63.0026H140.129V63.1286Z" fill="white"/>
<path d="M28.0873 65.0339L16.5945 15.3836C16.5826 15.3106 16.5464 15.2437 16.4916 15.194C16.4369 15.1442 16.3669 15.1145 16.2931 15.1096H0.325677C0.0726757 15.1096 -0.0734627 15.4393 0.0653682 15.6869" fill="white"/>
<path d="M29.1922 2.1875L34.8551 6.15332L28.3629 15.4267H26.4878L22.0854 12.3423L29.1922 2.1875ZM28.8826 0.00365423C28.8146 0.00364195 28.7476 0.0199287 28.6871 0.0511494C28.6271 0.0831173 28.5755 0.128806 28.5364 0.184499L19.9746 12.4108C19.9418 12.4558 19.9188 12.5071 19.907 12.5615C19.8956 12.6163 19.8956 12.6729 19.907 12.7277C19.9161 12.7828 19.9362 12.8354 19.9662 12.8825C19.9962 12.9296 20.0354 12.9702 20.0814 13.0017L25.9598 17.1118H29.2479L36.964 6.08481C36.9963 6.03936 37.0193 5.98792 37.0315 5.93351C37.0437 5.87909 37.045 5.82279 37.0353 5.76788C37.0255 5.7129 37.005 5.6604 36.9749 5.61337C36.9448 5.56635 36.9057 5.52574 36.8599 5.49387L29.1237 0.0767234C29.0529 0.0274002 28.9689 0.000652845 28.8826 0V0.00365423Z" fill="white"/>
<path d="M37.686 15.1097H19.2544C19.1962 15.1065 19.1391 15.1263 19.0954 15.165C19.0518 15.2036 19.0252 15.258 19.0215 15.3161V16.9191C19.0252 16.9773 19.0518 17.0316 19.0954 17.0702C19.1391 17.1089 19.1962 17.1288 19.2544 17.1255H37.686C37.7441 17.1288 37.8011 17.1089 37.8446 17.0702C37.8881 17.0315 37.9145 16.9772 37.918 16.9191V15.3161C37.9145 15.2581 37.8881 15.2037 37.8446 15.165C37.8011 15.1264 37.7441 15.1065 37.686 15.1097Z" fill="white"/>
<path d="M28.6782 66.6598L16.43 15.3536C16.4203 15.2901 16.3891 15.2318 16.3418 15.1883C16.2945 15.1448 16.2338 15.1187 16.1697 15.1143H0.26995C0.0553098 15.1143 -0.0734747 15.4038 0.0452622 15.6212L28.6088 66.6972C28.6326 66.742 28.6892 66.7109 28.6782 66.6598Z" fill="white"/>
<path d="M28.5876 66.6598L40.6366 15.3536C40.6458 15.2906 40.676 15.2326 40.7225 15.1891C40.769 15.1456 40.8289 15.1192 40.8924 15.1143H56.5337C56.7456 15.1143 56.8725 15.4038 56.7556 15.6212L28.6588 66.6972C28.6323 66.742 28.5757 66.7109 28.5876 66.6598Z" fill="white"/>
<path d="M28.1927 2.87954L28.4347 5.28716L28.8604 9.52515L24.7311 10.5746L22.3865 11.171L25.2891 7.02529L28.1918 2.87954M28.9225 0.0864816L24.468 6.44895L20.0117 12.8087L24.9795 11.5455L29.9463 10.2832L29.434 5.18395L28.9216 0.0837402L28.9225 0.0864816Z" fill="white"/>
</svg>
