<svg width="16" height="16" viewBox="0 0 16 16" fill="none" xmlns="http://www.w3.org/2000/svg">
<path d="M5.90011 2.17753C6.34119 1.60074 7.00714 1.23071 8 1.23071C8.99286 1.23071 9.65968 1.59992 10.0999 2.17753C10.56 2.7814 10.8108 3.66504 10.8108 4.71771V5.7433H5.18919V4.71771C5.18919 3.66504 5.44 2.7814 5.90011 2.17753ZM12.1081 5.7433V4.71771C12.1081 3.50505 11.8227 2.33752 11.1507 1.45634C10.4588 0.548075 9.39503 0 8 0C6.60497 0 5.54205 0.548075 4.8493 1.45634C4.1773 2.33752 3.89189 3.50505 3.89189 4.71771V5.7433H3.39027C2.92757 5.7433 2.5427 5.7433 2.22703 5.76791C1.89838 5.79334 1.59049 5.84832 1.29903 5.98944C0.851413 6.20577 0.487499 6.551 0.259459 6.97564C0.110703 7.25214 0.0518919 7.54505 0.0259459 7.85683C-2.4164e-08 8.15548 0 8.52141 0 8.95954V12.7829C0 13.2219 -2.4164e-08 13.587 0.0259459 13.8865C0.0518919 14.1982 0.110703 14.4912 0.259459 14.7677C0.487499 15.1923 0.851413 15.5375 1.29903 15.7539C1.59049 15.895 1.89838 15.95 2.22703 15.9754C2.5427 16 2.92757 16 3.39027 16H12.6097C13.0724 16 13.4573 16 13.773 15.9754C14.1016 15.95 14.4095 15.895 14.701 15.7539C15.1486 15.5375 15.5125 15.1923 15.7405 14.7677C15.8893 14.4912 15.9481 14.1982 15.9741 13.8865C16 13.5878 16 13.2219 16 12.7838V8.95954C16 8.52141 16 8.15548 15.9741 7.85683C15.9481 7.54505 15.8893 7.25214 15.7405 6.97564C15.513 6.55125 15.1497 6.20605 14.7027 5.98944C14.4104 5.84832 14.1025 5.79334 13.7738 5.76791C13.4582 5.7433 13.0733 5.7433 12.6106 5.7433H12.1081Z" fill="white"/>
</svg>
