<svg width="26" height="26" viewBox="0 0 26 26" fill="none" xmlns="http://www.w3.org/2000/svg">
<g clip-path="url(#clip0_870_527)">
<path d="M13.0013 23.8337C14.4242 23.8354 15.8335 23.556 17.148 23.0115C18.4626 22.4669 19.6567 21.668 20.6616 20.6606C21.669 19.6557 22.4679 18.4617 23.0124 17.1471C23.557 15.8325 23.8364 14.4232 23.8346 13.0003C23.8364 11.5774 23.557 10.1682 23.0124 8.8536C22.4679 7.53901 21.669 6.34497 20.6616 5.34008C19.6567 4.33267 18.4626 3.53374 17.148 2.9892C15.8335 2.44466 14.4242 2.16525 13.0013 2.167C11.5784 2.16525 10.1692 2.44466 8.85458 2.9892C7.53998 3.53374 6.34595 4.33267 5.34106 5.34008C4.33365 6.34497 3.53472 7.53901 2.99018 8.8536C2.44564 10.1682 2.16622 11.5774 2.16798 13.0003C2.16622 14.4232 2.44564 15.8325 2.99018 17.1471C3.53472 18.4617 4.33365 19.6557 5.34106 20.6606C6.34595 21.668 7.53998 22.4669 8.85458 23.0115C10.1692 23.556 11.5784 23.8354 13.0013 23.8337Z" stroke="#FBFBFF" stroke-width="3" stroke-linejoin="round"/>
<path fill-rule="evenodd" clip-rule="evenodd" d="M13.0026 20.0423C13.3618 20.0423 13.7062 19.8996 13.9601 19.6457C14.2141 19.3917 14.3568 19.0473 14.3568 18.6882C14.3568 18.329 14.2141 17.9846 13.9601 17.7306C13.7062 17.4767 13.3618 17.334 13.0026 17.334C12.6435 17.334 12.299 17.4767 12.0451 17.7306C11.7911 17.9846 11.6484 18.329 11.6484 18.6882C11.6484 19.0473 11.7911 19.3917 12.0451 19.6457C12.299 19.8996 12.6435 20.0423 13.0026 20.0423Z" fill="#FBFBFF"/>
<path d="M13 6.5V15.1667" stroke="#FBFBFF" stroke-width="3" stroke-linecap="round" stroke-linejoin="round"/>
</g>
<defs>
<clipPath id="clip0_870_527">
<rect width="26" height="26" fill="white"/>
</clipPath>
</defs>
</svg>
