<svg width="622" height="731" viewBox="0 0 622 731" fill="none" xmlns="http://www.w3.org/2000/svg">
<path d="M601.965 165.5L550.275 266.44L313.675 729.77L77.0648 265.44L25.3848 165.5H138.435L190.125 266.44L313.675 508.7L437.225 266.44L488.905 165.5H601.965Z" fill="#860909"/>
<path d="M307.514 712.05L181.684 168.45C181.554 167.649 181.156 166.916 180.555 166.371C179.953 165.825 179.184 165.501 178.374 165.45H3.56439C0.794389 165.45 -0.805596 169.06 0.704404 171.77" fill="#B20000"/>
<path d="M319.615 23.97L381.615 67.39L310.535 168.92H290.015L241.775 135.15L319.615 23.97ZM316.225 0.0599976C315.48 0.0606775 314.746 0.243194 314.088 0.591721C313.429 0.940247 312.865 1.44425 312.445 2.06L218.695 135.9C218.345 136.397 218.094 136.958 217.955 137.55C217.84 138.151 217.84 138.769 217.955 139.37C218.059 139.973 218.283 140.549 218.612 141.064C218.942 141.579 219.371 142.023 219.875 142.37L284.225 187.37H320.225L404.775 66.62C405.304 65.8689 405.599 64.978 405.622 64.0597C405.645 63.1414 405.396 62.2367 404.905 61.46C404.576 60.9444 404.148 60.4991 403.645 60.15L318.945 0.839996C318.166 0.300878 317.243 0.00824003 316.295 0L316.225 0.0599976Z" fill="#B20000"/>
<path d="M412.606 165.45H210.806C210.169 165.414 209.543 165.632 209.066 166.055C208.588 166.478 208.297 167.073 208.256 167.71V185.26C208.297 185.897 208.588 186.492 209.066 186.915C209.543 187.338 210.169 187.556 210.806 187.52H412.606C413.243 187.556 413.868 187.338 414.346 186.915C414.824 186.492 415.115 185.897 415.156 185.26V167.71C415.115 167.073 414.824 166.478 414.346 166.055C413.868 165.632 413.243 165.414 412.606 165.45Z" fill="#860909"/>
<path d="M313.965 729.85L179.905 168.12C179.796 167.425 179.455 166.788 178.938 166.312C178.42 165.837 177.757 165.55 177.055 165.5H2.96535C0.605353 165.5 -0.804617 168.67 0.495383 171.05L313.235 730.26C313.505 730.75 314.125 730.41 313.965 729.85Z" fill="#B20000"/>
<path d="M313.036 729.85L444.966 168.12C445.068 167.429 445.401 166.794 445.912 166.318C446.422 165.842 447.08 165.554 447.776 165.5H618.966C621.286 165.5 622.666 168.67 621.386 171.05L313.776 730.26C313.516 730.75 312.906 730.41 313.036 729.85Z" fill="#B20000"/>
<path d="M308.715 31.5502L311.355 57.9102L316.025 104.31L270.815 115.8L245.145 122.33L276.965 76.9402L308.745 31.5502M316.745 0.970215L267.965 70.6302L219.145 140.26L273.525 126.43L327.965 112.64L322.355 56.8102L316.745 0.970215Z" fill="#B20000"/>
</svg>
