<svg width="66" height="66" viewBox="0 0 66 66" fill="none" xmlns="http://www.w3.org/2000/svg">
<path d="M0 60.0686V49.1115C0.103232 48.8562 0.1933 48.5958 0.269845 48.3312C1.74453 42.1999 3.21521 36.0697 4.68187 29.9406C4.98781 28.6584 5.64437 28.1325 6.9575 28.129C8.73984 28.129 10.5239 28.129 12.3062 28.129C12.5761 28.129 12.8442 28.0792 13.1828 28.0448V15.4086C13.1828 12.3801 13.1828 9.35056 13.1828 6.31983C13.1828 5.13389 13.8411 4.38624 15.015 4.2178C15.3133 4.1834 15.6137 4.16961 15.9139 4.17654C27.3207 4.17654 38.728 4.17654 50.1359 4.17654C50.5218 4.17206 50.9073 4.20314 51.2875 4.26936C51.7043 4.34313 52.0839 4.55561 52.3647 4.8723C52.6455 5.18898 52.811 5.59128 52.8344 6.01389C52.8567 6.33358 52.8533 6.6567 52.8533 6.97983C52.8533 13.6623 52.8533 20.3443 52.8533 27.0256C52.8533 27.359 52.8911 27.6942 52.9151 28.0706C53.2744 28.0895 53.5477 28.1153 53.8227 28.1153C55.5638 28.1153 57.3031 28.1153 59.0425 28.1153C60.3556 28.1153 61.0122 28.6464 61.3198 29.9286C62.5333 34.9977 63.7479 40.0663 64.9636 45.1344C65.2833 46.4629 65.6511 47.7812 65.9948 49.1047V60.0617C65.5376 61.4505 64.5201 61.8251 63.1434 61.8234C43.0444 61.8017 22.9453 61.8017 2.84625 61.8234C1.47812 61.8303 0.458906 61.4556 0 60.0686ZM17.2287 37.7248C17.5227 37.7472 17.7444 37.7815 17.9833 37.7815C28.0151 37.7815 38.048 37.7856 48.082 37.7936C48.6922 37.7936 48.8984 37.6062 48.8967 36.984C48.8818 27.6581 48.8772 18.3322 48.883 9.00623C48.883 8.75873 48.8383 8.51295 48.8159 8.26373H17.2287V37.7248ZM61.3095 47.3773C61.3001 47.1652 61.2772 46.954 61.2408 46.7448C60.1179 42.0469 58.9944 37.3547 57.8703 32.6683C57.7689 32.242 57.5644 32.065 57.1175 32.0719C55.9373 32.0948 54.7559 32.0948 53.5734 32.0719C53.0578 32.0615 52.8395 32.2437 52.8464 32.78C52.8653 34.2615 52.8326 35.7431 52.8722 37.2247C52.8899 37.3713 52.9379 37.5127 53.013 37.6399C53.0882 37.7671 53.1889 37.8774 53.3088 37.9637C54.1853 38.5326 54.5858 39.3834 54.3297 40.3236C54.0976 41.1829 53.3276 41.7364 52.3325 41.7364C39.4465 41.7364 26.561 41.7364 13.6761 41.7364C12.6603 41.7364 11.8559 41.1365 11.6566 40.2686C11.4331 39.2992 11.813 38.4501 12.76 37.9689C13.1192 37.7867 13.188 37.553 13.1862 37.204C13.1759 35.7225 13.1862 34.2392 13.1862 32.7576C13.1862 32.572 13.1502 32.3847 13.1261 32.1509C12.858 32.1234 12.6294 32.0805 12.4008 32.0805C11.263 32.0805 10.1234 32.1011 8.98563 32.0667C8.4511 32.0495 8.22937 32.2558 8.10906 32.7542C7.0125 37.3862 5.89531 42.0131 4.78843 46.6434C4.73515 46.8634 4.7214 47.092 4.68015 47.3704L61.3095 47.3773ZM4.125 57.7362H61.8509V51.4628H4.125V57.7362Z" fill="#B20000"/>
<path d="M30.7961 24.3354C31.1244 24.0226 31.329 23.837 31.5249 23.6479C34.3666 20.8039 37.2071 17.9628 40.0465 15.1246C40.5947 14.5746 41.2118 14.2566 42.0093 14.4268C42.3489 14.4898 42.6662 14.6408 42.9293 14.8647C43.1924 15.0885 43.3923 15.3774 43.509 15.7026C43.6257 16.0278 43.6551 16.3779 43.5943 16.7179C43.5335 17.058 43.3847 17.3762 43.1626 17.6409C43.0249 17.8049 42.878 17.961 42.7226 18.1084L32.6111 28.2215C31.3685 29.4624 30.3768 29.459 29.1238 28.2215C27.617 26.709 26.1131 25.2028 24.6121 23.7029C23.6702 22.7541 23.6066 21.4977 24.4402 20.6779C25.2738 19.8581 26.5027 19.9388 27.4171 20.8652C28.5394 21.9996 29.6343 23.1391 30.7961 24.3354Z" fill="#B20000"/>
</svg>
