<svg width="68" height="33" viewBox="0 0 68 33" fill="none" xmlns="http://www.w3.org/2000/svg">
<path d="M26.6573 7.32788L24.3687 11.7977L13.8911 32.315L3.41351 11.7534L1.125 7.32788H6.13155L8.42006 11.7977L13.8911 22.5255L19.3622 11.7977L21.6507 7.32788H26.6573Z" fill="#860909"/>
<path d="M47.6437 19.785C47.6437 25.7015 42.8306 30.515 36.9136 30.515C30.9966 30.515 26.1836 25.7015 26.1836 19.785C26.1836 13.8684 30.9971 9.05493 36.9136 9.05493C42.8302 9.05493 47.6437 13.868 47.6437 19.785ZM43.8115 19.785C43.8115 15.9833 40.7153 12.8871 36.9136 12.8871C33.112 12.8871 30.0158 15.9833 30.0158 19.785C30.0158 23.5866 33.1133 26.6828 36.9136 26.6828C40.7139 26.6828 43.8115 23.5861 43.8115 19.785Z" fill="#B20000"/>
<path d="M46.4785 30.5458H46.5396L46.4785 30.6069V30.5458ZM67.9997 9.08569L59.6915 19.8463L67.9691 30.5458H63.1251L57.2697 22.9735L51.4142 30.5458H46.5702L54.8173 19.8463L46.5091 9.08569H51.3531L57.2391 16.7195L63.1251 9.08569H67.9997ZM67.9386 30.6069L67.9076 30.5458H67.9386V30.6069Z" fill="#B20000"/>
<path d="M13.6157 31.5304L8.04367 7.45853C8.03794 7.42312 8.02036 7.3907 7.99382 7.36657C7.96728 7.34244 7.93334 7.32803 7.89754 7.32568H0.156122C0.0334598 7.32568 -0.037392 7.48554 0.029917 7.60555" fill="#B20000"/>
<path d="M14.1524 1.06056L16.8979 2.98329L13.7503 7.47927H12.8412L10.7068 5.98386L14.1524 1.06056ZM14.0022 0.00177167C13.9693 0.00176572 13.9368 0.00966198 13.9075 0.0247986C13.8784 0.0402975 13.8533 0.0624487 13.8344 0.0894503L9.6834 6.01707C9.66752 6.03889 9.65636 6.06377 9.65063 6.09014C9.6451 6.11672 9.6451 6.14415 9.65063 6.17073C9.65504 6.19743 9.6648 6.22297 9.67934 6.2458C9.69387 6.26863 9.71288 6.28828 9.73521 6.30358L12.5852 8.29628H14.1794L17.9203 2.95008C17.936 2.92805 17.9471 2.90311 17.9531 2.87673C17.959 2.85034 17.9596 2.82305 17.9549 2.79642C17.9502 2.76977 17.9402 2.74432 17.9256 2.72152C17.911 2.69872 17.8921 2.67903 17.8699 2.66358L14.1192 0.0371976C14.0848 0.0132844 14.0441 0.000316517 14.0022 0V0.00177167Z" fill="#B20000"/>
<path d="M18.2717 7.32585H9.33558C9.30736 7.32427 9.27966 7.3339 9.25852 7.35265C9.23737 7.37139 9.22448 7.39773 9.22266 7.42593V8.20308C9.22448 8.23128 9.23737 8.25762 9.25852 8.27636C9.27966 8.29511 9.30736 8.30474 9.33558 8.30316H18.2717C18.2999 8.30473 18.3275 8.29509 18.3486 8.27634C18.3697 8.25758 18.3825 8.23124 18.3842 8.20308V7.42593C18.3825 7.39777 18.3697 7.37143 18.3486 7.35268C18.3275 7.33392 18.2999 7.32428 18.2717 7.32585Z" fill="#860909"/>
<path d="M13.904 32.3186L7.96574 7.4439C7.96099 7.41311 7.94591 7.38485 7.92297 7.36377C7.90004 7.34269 7.87061 7.33003 7.83953 7.32788H0.130879C0.0268157 7.32788 -0.0356226 7.46826 0.0219444 7.57365L13.8703 32.3367C13.8818 32.3584 13.9093 32.3434 13.904 32.3186Z" fill="#B20000"/>
<path d="M13.8602 32.3186L19.7019 7.4439C19.7063 7.41336 19.721 7.38524 19.7435 7.36415C19.7661 7.34307 19.7951 7.33028 19.8259 7.32788H27.4092C27.5119 7.32788 27.5735 7.46826 27.5168 7.57365L13.8947 32.3367C13.8819 32.3584 13.8544 32.3434 13.8602 32.3186Z" fill="#B20000"/>
<path d="M13.6695 1.39601L13.7868 2.56329L13.9932 4.61798L11.9912 5.12679L10.8545 5.41595L12.2618 3.40598L13.669 1.39601M14.0233 0.0418564L11.8637 3.12656L9.70312 6.20993L12.1116 5.59751L14.5197 4.98553L14.2713 2.51325L14.0229 0.0405273L14.0233 0.0418564Z" fill="#B20000"/>
</svg>
