<svg width="24" height="25" viewBox="0 0 24 25" fill="none" xmlns="http://www.w3.org/2000/svg">
<path d="M6.28799 14.5401C6.19426 14.633 6.11986 14.7436 6.06909 14.8655C6.01833 14.9873 5.99219 15.118 5.99219 15.2501C5.99219 15.3821 6.01833 15.5128 6.06909 15.6346C6.11986 15.7565 6.19426 15.8671 6.28799 15.9601L11.288 20.9601C11.3809 21.0538 11.4915 21.1282 11.6134 21.179C11.7353 21.2297 11.866 21.2559 11.998 21.2559C12.13 21.2559 12.2607 21.2297 12.3826 21.179C12.5044 21.1282 12.615 21.0538 12.708 20.9601L17.708 15.9601C17.8017 15.8671 17.8761 15.7565 17.9269 15.6346C17.9776 15.5128 18.0038 15.3821 18.0038 15.2501C18.0038 15.118 17.9776 14.9873 17.9269 14.8655C17.8761 14.7436 17.8017 14.633 17.708 14.5401C17.615 14.4463 17.5044 14.3719 17.3826 14.3212C17.2607 14.2704 17.13 14.2443 16.998 14.2443C16.866 14.2443 16.7353 14.2704 16.6134 14.3212C16.4915 14.3719 16.3809 14.4463 16.288 14.5401L11.998 18.8401L7.70799 14.5401C7.61502 14.4463 7.50442 14.3719 7.38256 14.3212C7.2607 14.2704 7.13 14.2443 6.99799 14.2443C6.86597 14.2443 6.73527 14.2704 6.61341 14.3212C6.49155 14.3719 6.38095 14.4463 6.28799 14.5401ZM11.288 3.54006L6.28799 8.54006C6.19475 8.6333 6.12079 8.74399 6.07033 8.86581C6.01987 8.98763 5.99389 9.1182 5.99389 9.25006C5.99389 9.51636 6.09968 9.77176 6.28799 9.96006C6.38122 10.0533 6.49191 10.1273 6.61374 10.1777C6.73556 10.2282 6.86613 10.2542 6.99799 10.2542C7.26429 10.2542 7.51968 10.1484 7.70799 9.96006L11.998 5.66006L16.288 9.96006C16.3809 10.0538 16.4915 10.1282 16.6134 10.179C16.7353 10.2297 16.866 10.2559 16.998 10.2559C17.13 10.2559 17.2607 10.2297 17.3826 10.179C17.5044 10.1282 17.615 10.0538 17.708 9.96006C17.8017 9.8671 17.8761 9.7565 17.9269 9.63464C17.9776 9.51278 18.0038 9.38207 18.0038 9.25006C18.0038 9.11805 17.9776 8.98734 17.9269 8.86548C17.8761 8.74362 17.8017 8.63302 17.708 8.54006L12.708 3.54006C12.615 3.44633 12.5044 3.37194 12.3826 3.32117C12.2607 3.2704 12.13 3.24426 11.998 3.24426C11.866 3.24426 11.7353 3.2704 11.6134 3.32117C11.4915 3.37194 11.3809 3.44633 11.288 3.54006Z" fill="#860909"/>
</svg>
