<svg width="27" height="27" viewBox="0 0 27 27" fill="none" xmlns="http://www.w3.org/2000/svg">
<path d="M8.4375 13.5H18.5625M18.5625 13.5L14.625 9.5625M18.5625 13.5L14.625 17.4375" stroke="#C90D0D" stroke-width="1.5" stroke-linecap="round" stroke-linejoin="round"/>
<path d="M10.9271 4.09489C11.5807 3.53801 11.9081 3.25901 12.2501 3.09589C12.6404 2.90964 13.0675 2.81299 13.5 2.81299C13.9325 2.81299 14.3595 2.90964 14.7498 3.09589C15.0918 3.25901 15.4192 3.53801 16.0728 4.09489C16.7467 4.66864 17.4307 4.95889 18.3307 5.02976C19.1868 5.09839 19.6155 5.13326 19.9732 5.25926C20.799 5.55176 21.4492 6.20089 21.7406 7.02776C21.8666 7.38439 21.9015 7.81301 21.9701 8.67026C22.041 9.57026 22.3301 10.2531 22.9038 10.927C23.4618 11.5806 23.7408 11.908 23.904 12.25C24.282 13.0409 24.282 13.96 23.904 14.7498C23.7408 15.0918 23.4618 15.4191 22.905 16.0728C22.3475 16.6983 22.018 17.4941 21.9701 18.3306C21.9015 19.1868 21.8666 19.6154 21.7406 19.9731C21.5961 20.3809 21.3624 20.7512 21.0564 21.057C20.7504 21.3628 20.3799 21.5963 19.9721 21.7405C19.6155 21.8665 19.1868 21.9014 18.3296 21.97C17.4296 22.0409 16.7467 22.33 16.0728 22.9038C15.4192 23.4618 15.0918 23.7408 14.7498 23.9039C14.3595 24.0901 13.9325 24.1868 13.5 24.1868C13.0675 24.1868 12.6404 24.0901 12.2501 23.9039C11.9081 23.7408 11.5807 23.4618 10.9271 22.9049C10.3015 22.3474 9.50577 22.0179 8.66921 21.97C7.81309 21.9014 7.38446 21.8665 7.02671 21.7405C6.61895 21.5961 6.24863 21.3623 5.94284 21.0563C5.63705 20.7503 5.40352 20.3799 5.25934 19.972C5.13334 19.6154 5.09846 19.1868 5.02984 18.3295C4.98201 17.4935 4.65295 16.6982 4.09609 16.0728C3.53809 15.4191 3.25908 15.0918 3.09483 14.7498C2.90877 14.3593 2.81231 13.9323 2.8125 13.4998C2.81269 13.0673 2.90954 12.6403 3.09596 12.25C3.25909 11.908 3.53809 11.5806 4.09496 10.927C4.67996 10.2396 4.96009 9.55114 5.02984 8.66914C5.09846 7.81301 5.13334 7.38439 5.25934 7.02664C5.40378 6.61887 5.63754 6.24855 5.94353 5.94276C6.24951 5.63697 6.61998 5.40345 7.02784 5.25926C7.38446 5.13326 7.81309 5.09839 8.67034 5.02976C9.50637 4.98194 10.3017 4.65175 10.9271 4.09489Z" stroke="#C90D0D" stroke-width="1.5" stroke-linecap="round" stroke-linejoin="round"/>
</svg>
