<svg width="26" height="26" viewBox="0 0 26 26" fill="none" xmlns="http://www.w3.org/2000/svg">
<g clip-path="url(#clip0_870_527)">
<path d="M13.0013 23.8332C14.4242 23.8349 15.8335 23.5555 17.148 23.011C18.4626 22.4664 19.6567 21.6675 20.6616 20.6601C21.669 19.6552 22.4679 18.4612 23.0124 17.1466C23.557 15.832 23.8364 14.4228 23.8346 12.9998C23.8364 11.5769 23.557 10.1677 23.0124 8.85311C22.4679 7.53852 21.669 6.34448 20.6616 5.3396C19.6567 4.33218 18.4626 3.53326 17.148 2.98872C15.8335 2.44418 14.4242 2.16476 13.0013 2.16651C11.5784 2.16476 10.1692 2.44418 8.85458 2.98872C7.53998 3.53326 6.34595 4.33218 5.34106 5.3396C4.33365 6.34448 3.53472 7.53852 2.99018 8.85311C2.44564 10.1677 2.16622 11.5769 2.16798 12.9998C2.16622 14.4228 2.44564 15.832 2.99018 17.1466C3.53472 18.4612 4.33365 19.6552 5.34106 20.6601C6.34595 21.6675 7.53998 22.4664 8.85458 23.011C10.1692 23.5555 11.5784 23.8349 13.0013 23.8332Z" stroke="#FBFBFF" stroke-width="3" stroke-linejoin="round"/>
<path fill-rule="evenodd" clip-rule="evenodd" d="M13.0026 20.0413C13.3618 20.0413 13.7062 19.8987 13.9601 19.6447C14.2141 19.3908 14.3568 19.0463 14.3568 18.6872C14.3568 18.328 14.2141 17.9836 13.9601 17.7296C13.7062 17.4757 13.3618 17.333 13.0026 17.333C12.6435 17.333 12.299 17.4757 12.0451 17.7296C11.7911 17.9836 11.6484 18.328 11.6484 18.6872C11.6484 19.0463 11.7911 19.3908 12.0451 19.6447C12.299 19.8987 12.6435 20.0413 13.0026 20.0413Z" fill="#FBFBFF"/>
<path d="M13 6.5V15.1667" stroke="#FBFBFF" stroke-width="3" stroke-linecap="round" stroke-linejoin="round"/>
</g>
<defs>
<clipPath id="clip0_870_527">
<rect width="26" height="26" fill="white"/>
</clipPath>
</defs>
</svg>
